<?xml version="1.0" encoding="utf-8"?>
<!-- Generator: Adobe Illustrator 16.0.4, SVG Export Plug-In . SVG Version: 6.00 Build 0)  -->
<!DOCTYPE svg PUBLIC "-//W3C//DTD SVG 1.1//EN" "http://www.w3.org/Graphics/SVG/1.1/DTD/svg11.dtd">
<svg version="1.1" id="Calque_1" xmlns="http://www.w3.org/2000/svg" xmlns:xlink="http://www.w3.org/1999/xlink" x="0px" y="0px"
	 width="40px" height="40px" viewBox="0 0 40 40" enable-background="new 0 0 40 40" xml:space="preserve">
<g>
	<path d="M22.229,9h-4.457c-0.742,0-1.4,0.777-1.485,1.515L15.776,15h8.447l-0.511-4.485C23.629,9.777,22.971,9,22.229,9z"/>
	<path d="M0,0v40h40V0H0z M29.654,33H10.345c-0.742,0-1.485-0.93-1.485-1.673l1.485-14.848c0-0.742,0.743-1.479,1.486-1.479h2.459
		l0.511-4.743C14.971,8.781,16.287,7,17.772,7h4.457c1.484,0,2.801,1.781,2.971,3.257L25.709,15h2.46
		c0.743,0,1.485,0.644,1.485,1.386l1.485,14.991C31.14,32.12,30.396,33,29.654,33z"/>
</g>
</svg>
