<?xml version="1.0" encoding="utf-8"?>
<!-- Generator: Adobe Illustrator 16.0.4, SVG Export Plug-In . SVG Version: 6.00 Build 0)  -->
<!DOCTYPE svg PUBLIC "-//W3C//DTD SVG 1.1//EN" "http://www.w3.org/Graphics/SVG/1.1/DTD/svg11.dtd">
<svg version="1.1" id="Calque_1" xmlns="http://www.w3.org/2000/svg" xmlns:xlink="http://www.w3.org/1999/xlink" x="0px" y="0px"
	 width="25.985px" height="41.669px" viewBox="0 0 25.985 41.669" enable-background="new 0 0 25.985 41.669" xml:space="preserve">
<g id="Your_Icon_1_">
	<path fill="#FFFFFF" d="M24.647,13.089l1.338-1.578L24.309,10.3l0.921-1.853l-1.917-0.774l0.451-2.019L21.716,5.36L21.67,3.292
		l-2.058,0.204l-0.537-1.997l-1.951,0.693l-1-1.812l-1.727,1.139L12.993,0l-1.405,1.519L9.86,0.38l-1,1.812L6.91,1.499L6.372,3.496
		L4.314,3.292L4.27,5.36L2.221,5.654l0.452,2.017L0.755,8.447l0.922,1.852L0,11.511l1.338,1.577L0,14.666l1.677,1.21l-0.922,1.853
		l1.918,0.775l-0.452,2.02l2.048,0.293l0.044,2.069l2.058-0.205l0.538,1.996l1.95-0.691l1,1.812l1.727-1.139l1.405,1.519
		l1.405-1.519l1.727,1.139l1-1.812l1.951,0.691l0.537-1.996l2.059,0.205l0.045-2.069l2.047-0.293l-0.451-2.02l1.919-0.775
		l-0.921-1.853l1.675-1.21L24.647,13.089z M12.993,22.662c-5.287,0-9.572-4.287-9.572-9.573c0-5.287,4.285-9.574,9.572-9.574
		s9.572,4.287,9.572,9.573C22.564,18.375,18.28,22.662,12.993,22.662z"/>
	<polygon fill="#FFFFFF" points="17.401,25.31 16.644,26.679 16.334,27.241 15.797,26.889 14.491,26.026 13.429,27.174 
		12.993,27.647 12.557,27.174 11.494,26.026 10.188,26.889 9.651,27.241 9.34,26.679 8.583,25.31 7.109,25.832 6.899,25.907 
		6.899,41.669 12.993,35.574 19.085,41.669 19.085,25.907 18.876,25.832 	"/>
	<circle fill="#FFFFFF" cx="12.993" cy="13.089" r="8.578"/>
</g>
</svg>
